<svg width="343" height="75" viewBox="0 0 343 75" fill="none" xmlns="http://www.w3.org/2000/svg">
<g clip-path="url(#clip0_2058_239)">
<path d="M52.8 8H7.2C3.22355 8 0 11.2235 0 15.2V60.8C0 64.7765 3.22355 68 7.2 68H52.8C56.7765 68 60 64.7765 60 60.8V15.2C60 11.2235 56.7765 8 52.8 8Z" fill="url(#paint0_linear_2058_239)"/>
<path d="M33.5514 47.5218H39.0468C38.2069 48.9783 37.3736 50.4383 36.5461 51.9013C36.5434 51.9049 36.5404 51.9081 36.5387 51.9125H23.9526C23.9405 51.8926 23.9273 51.8741 23.9148 51.852C22.1162 48.7018 20.3075 45.5572 18.4994 42.4126C17.6161 40.8762 16.7272 39.3433 15.8432 37.8078C15.8045 37.7401 15.7838 37.6608 15.7339 37.5335C15.878 37.5193 15.9874 37.4994 16.0967 37.4994C17.633 37.4974 19.1704 37.5052 20.7071 37.4967C22.4047 37.4873 23.9516 36.3931 24.4964 34.8339C25.2449 32.6939 24.16 30.4441 21.9863 29.6898C21.5603 29.542 21.0888 29.4616 20.6372 29.4589C17.6226 29.4381 14.6072 29.4401 11.5926 29.4543C11.1799 29.4563 10.946 29.3411 10.7377 28.9594C10.0421 27.684 9.29184 26.4379 8.56416 25.1803C8.51318 25.0926 8.47269 24.9984 8.39844 24.8485C8.56416 24.8316 8.67351 24.8107 8.78287 24.8107C12.7908 24.8081 16.799 24.7891 20.807 24.8117C24.4578 24.8316 27.756 27.2701 28.909 30.7465C30.3454 35.0815 28.2049 39.7371 23.9762 41.4773C23.9105 41.5037 23.848 41.5393 23.7802 41.5594C23.5051 41.6404 23.4636 41.7797 23.6104 42.0316C24.54 43.6225 25.4552 45.2233 26.3837 46.8155C26.8984 47.6987 26.6014 47.5384 27.659 47.5457C29.5387 47.5572 31.4194 47.5447 33.2989 47.5542C33.3948 47.5546 33.4778 47.5451 33.5514 47.5218Z" fill="#B591FF"/>
<path d="M45.5224 36.221C45.444 36.4039 45.3989 36.5454 45.3263 36.6705C44.5203 38.0648 43.7144 39.4587 42.9074 40.853H37.5231C37.5288 40.8409 37.5362 40.8278 37.543 40.8142H30.4414C30.5272 40.6512 30.565 40.5578 30.6213 40.4776C31.4799 39.258 32.1209 37.9356 32.468 36.4809C32.5378 36.1906 32.7261 36.1953 32.9478 36.1953C35.3127 36.1981 37.677 36.1974 40.042 36.1974C41.7207 36.1974 43.3995 36.1983 45.0782 36.1992C45.2055 36.2005 45.3317 36.2116 45.5224 36.221Z" fill="#B591FF"/>
<path d="M29.3711 24.8418C36.9299 24.8418 44.476 24.8418 52.1077 24.8418C51.8877 25.2394 51.7075 25.5762 51.5167 25.9073C50.8864 27.0025 50.2471 28.0927 49.624 29.1919C49.5025 29.4062 49.3386 29.439 49.1249 29.4386C47.553 29.4353 45.9814 29.4377 44.4095 29.4373C40.486 29.4366 36.5621 29.4316 32.6386 29.442C32.2915 29.4431 32.1107 29.3442 31.9849 29.01C31.4419 27.5662 30.6196 26.2927 29.559 25.1729C29.5024 25.1128 29.4471 25.0507 29.3987 24.9842C29.3808 24.9589 29.3848 24.9178 29.3711 24.8418Z" fill="#B591FF"/>
</g>
<path d="M101.88 36.92C101.987 37.2133 101.973 37.4667 101.84 37.68C101.733 37.8933 101.547 38 101.28 38H95.4C94.9467 38 94.6533 37.76 94.52 37.28L90.2 26.08C90.04 25.7067 89.6667 25.52 89.08 25.52H85.28C85.0933 25.52 84.96 25.5733 84.88 25.68C84.8267 25.7867 84.8 25.88 84.8 25.96V37.04C84.8 37.68 84.44 38 83.72 38H78.64C78.32 38 78.0933 37.9333 77.96 37.8C77.8533 37.6667 77.8 37.4667 77.8 37.2V9.08C77.8 8.57333 78.0133 8.32 78.44 8.32H90.92C94.4933 8.32 97.2667 9.02667 99.24 10.44C101.24 11.8533 102.24 13.8667 102.24 16.48C102.24 17.84 101.987 19.0533 101.48 20.12C100.973 21.1867 100.307 22.08 99.48 22.8C98.6533 23.4933 97.7467 24.0133 96.76 24.36C96.52 24.44 96.4667 24.64 96.6 24.96L101.88 36.92ZM90.28 20.8C91.8 20.8 92.96 20.48 93.76 19.84C94.5867 19.1733 95 18.2133 95 16.96C95 15.6533 94.5867 14.6667 93.76 14C92.9333 13.3333 91.84 13 90.48 13H85.56C85.0533 13 84.8 13.2267 84.8 13.68V20.12C84.8 20.5733 84.9867 20.8 85.36 20.8H90.28ZM106.667 9.08C106.667 8.57333 106.881 8.32 107.307 8.32H127.467C127.867 8.32 128.067 8.54667 128.067 9L128.027 12.6C128.027 13.16 127.747 13.44 127.187 13.44H114.427C113.921 13.44 113.667 13.6533 113.667 14.08V19.88C113.667 20.3333 113.867 20.56 114.267 20.56H122.747C123.201 20.56 123.427 20.7733 123.427 21.2V25.04C123.427 25.2 123.374 25.3333 123.267 25.44C123.187 25.5467 123.027 25.6 122.787 25.6H114.227C113.854 25.6 113.667 25.76 113.667 26.08V32.36C113.667 32.7067 113.814 32.88 114.107 32.88H127.787C128.267 32.88 128.507 33.08 128.507 33.48V37.28C128.507 37.4933 128.441 37.6667 128.307 37.8C128.201 37.9333 128.001 38 127.707 38H107.547C106.961 38 106.667 37.72 106.667 37.16V9.08ZM149.879 15.32C149.292 14.68 148.559 14.1067 147.679 13.6C146.826 13.0933 145.599 12.84 143.999 12.84C142.319 12.84 141.066 13.1467 140.239 13.76C139.412 14.3467 138.999 15.1067 138.999 16.04C138.999 16.36 139.079 16.7067 139.239 17.08C139.399 17.4533 139.719 17.8133 140.199 18.16C140.679 18.5067 141.359 18.8133 142.239 19.08L148.559 20.88C151.012 21.5467 152.799 22.6267 153.919 24.12C155.039 25.5867 155.599 27.2933 155.599 29.24C155.599 31.1067 155.119 32.7333 154.159 34.12C153.199 35.48 151.826 36.5333 150.039 37.28C148.252 38.0267 146.132 38.4 143.679 38.4C141.866 38.4 140.159 38.2 138.559 37.8C136.986 37.3733 135.586 36.7733 134.359 36C133.159 35.2 132.212 34.28 131.519 33.24C131.386 32.9733 131.332 32.76 131.359 32.6C131.386 32.4133 131.519 32.2267 131.759 32.04L134.839 29.92C135.159 29.7333 135.412 29.6533 135.599 29.68C135.812 29.7067 135.999 29.8133 136.159 30C136.799 30.8 137.426 31.4667 138.039 32C138.679 32.5333 139.412 32.92 140.239 33.16C141.066 33.4 142.052 33.52 143.199 33.52C144.932 33.52 146.319 33.2533 147.359 32.72C148.399 32.16 148.919 31.3067 148.919 30.16C148.919 29.7067 148.812 29.2933 148.599 28.92C148.386 28.52 148.039 28.1733 147.559 27.88C147.106 27.56 146.452 27.2667 145.599 27L139.559 25.28C137.986 24.8267 136.666 24.1867 135.599 23.36C134.532 22.5333 133.719 21.56 133.159 20.44C132.626 19.32 132.359 18.1467 132.359 16.92C132.359 15.2133 132.826 13.68 133.759 12.32C134.719 10.96 136.052 9.89333 137.759 9.12C139.492 8.32 141.506 7.92 143.799 7.92C145.319 7.92 146.732 8.09333 148.039 8.44C149.372 8.78667 150.572 9.26667 151.639 9.88C152.706 10.4933 153.572 11.24 154.239 12.12C154.346 12.2533 154.426 12.4133 154.479 12.6C154.532 12.76 154.452 12.9333 154.239 13.12L150.879 15.6C150.719 15.7067 150.572 15.7467 150.439 15.72C150.306 15.6667 150.119 15.5333 149.879 15.32ZM184.189 17.56C184.189 19.5333 183.723 21.2 182.789 22.56C181.856 23.8933 180.576 24.9067 178.949 25.6C177.349 26.2933 175.483 26.64 173.349 26.64H167.349C167.056 26.64 166.909 26.7867 166.909 27.08V37.08C166.909 37.6933 166.563 38 165.869 38H160.749C160.429 38 160.203 37.9333 160.069 37.8C159.963 37.6667 159.909 37.4667 159.909 37.2V9.08C159.909 8.57333 160.123 8.32 160.549 8.32H172.549C174.683 8.32 176.629 8.65333 178.389 9.32C180.176 9.98667 181.589 11 182.629 12.36C183.669 13.72 184.189 15.4533 184.189 17.56ZM176.989 17.44C176.989 16.5067 176.789 15.7467 176.389 15.16C175.989 14.5467 175.416 14.0933 174.669 13.8C173.923 13.5067 173.069 13.36 172.109 13.36H167.669C167.163 13.36 166.909 13.5867 166.909 14.04V20.88C166.909 21.3867 167.096 21.64 167.469 21.64H172.389C173.803 21.64 174.923 21.2667 175.749 20.52C176.576 19.7733 176.989 18.7467 176.989 17.44ZM201.223 38.4C198.396 38.4 195.956 37.8 193.903 36.6C191.85 35.3733 190.263 33.6267 189.143 31.36C188.05 29.0933 187.503 26.4 187.503 23.28C187.503 20.1067 188.063 17.3733 189.183 15.08C190.33 12.7867 191.93 11.0267 193.983 9.8C196.036 8.54667 198.45 7.92 201.223 7.92C203.996 7.92 206.396 8.54667 208.423 9.8C210.476 11.0267 212.063 12.7867 213.183 15.08C214.303 17.3467 214.863 20.0667 214.863 23.24C214.863 26.36 214.303 29.0533 213.183 31.32C212.09 33.5867 210.516 35.3333 208.463 36.56C206.41 37.7867 203.996 38.4 201.223 38.4ZM201.223 33.48C203.41 33.48 205.01 32.6933 206.023 31.12C207.036 29.52 207.543 26.92 207.543 23.32C207.543 19.64 207.023 16.9733 205.983 15.32C204.97 13.64 203.383 12.8 201.223 12.8C199.036 12.8 197.423 13.64 196.383 15.32C195.343 17 194.823 19.6667 194.823 23.32C194.823 26.8933 195.33 29.48 196.343 31.08C197.383 32.68 199.01 33.48 201.223 33.48ZM243.72 8.32C244.066 8.32 244.24 8.52 244.24 8.92V37.36C244.24 37.5467 244.173 37.7067 244.04 37.84C243.906 37.9467 243.72 38 243.48 38H239.44C239.226 38 239.053 37.9733 238.92 37.92C238.786 37.8667 238.626 37.7333 238.44 37.52L225.68 19.6C225.573 19.4667 225.466 19.4133 225.36 19.44C225.28 19.4667 225.24 19.5467 225.24 19.68V37.28C225.266 37.76 225 38 224.44 38H220.28C219.746 38 219.48 37.7733 219.48 37.32V9.08C219.48 8.57333 219.72 8.32 220.2 8.32H225.04C225.333 8.32 225.546 8.36 225.68 8.44C225.84 8.52 226.013 8.68 226.2 8.92L237.96 25.68C238.12 25.8933 238.253 25.9867 238.36 25.96C238.493 25.9333 238.56 25.8 238.56 25.56V9.04C238.56 8.56 238.8 8.32 239.28 8.32H243.72ZM266.871 15.32C266.285 14.68 265.551 14.1067 264.671 13.6C263.818 13.0933 262.591 12.84 260.991 12.84C259.311 12.84 258.058 13.1467 257.231 13.76C256.405 14.3467 255.991 15.1067 255.991 16.04C255.991 16.36 256.071 16.7067 256.231 17.08C256.391 17.4533 256.711 17.8133 257.191 18.16C257.671 18.5067 258.351 18.8133 259.231 19.08L265.551 20.88C268.005 21.5467 269.791 22.6267 270.911 24.12C272.031 25.5867 272.591 27.2933 272.591 29.24C272.591 31.1067 272.111 32.7333 271.151 34.12C270.191 35.48 268.818 36.5333 267.031 37.28C265.245 38.0267 263.125 38.4 260.671 38.4C258.858 38.4 257.151 38.2 255.551 37.8C253.978 37.3733 252.578 36.7733 251.351 36C250.151 35.2 249.205 34.28 248.511 33.24C248.378 32.9733 248.325 32.76 248.351 32.6C248.378 32.4133 248.511 32.2267 248.751 32.04L251.831 29.92C252.151 29.7333 252.405 29.6533 252.591 29.68C252.805 29.7067 252.991 29.8133 253.151 30C253.791 30.8 254.418 31.4667 255.031 32C255.671 32.5333 256.405 32.92 257.231 33.16C258.058 33.4 259.045 33.52 260.191 33.52C261.925 33.52 263.311 33.2533 264.351 32.72C265.391 32.16 265.911 31.3067 265.911 30.16C265.911 29.7067 265.805 29.2933 265.591 28.92C265.378 28.52 265.031 28.1733 264.551 27.88C264.098 27.56 263.445 27.2667 262.591 27L256.551 25.28C254.978 24.8267 253.658 24.1867 252.591 23.36C251.525 22.5333 250.711 21.56 250.151 20.44C249.618 19.32 249.351 18.1467 249.351 16.92C249.351 15.2133 249.818 13.68 250.751 12.32C251.711 10.96 253.045 9.89333 254.751 9.12C256.485 8.32 258.498 7.92 260.791 7.92C262.311 7.92 263.725 8.09333 265.031 8.44C266.365 8.78667 267.565 9.26667 268.631 9.88C269.698 10.4933 270.565 11.24 271.231 12.12C271.338 12.2533 271.418 12.4133 271.471 12.6C271.525 12.76 271.445 12.9333 271.231 13.12L267.871 15.6C267.711 15.7067 267.565 15.7467 267.431 15.72C267.298 15.6667 267.111 15.5333 266.871 15.32ZM283.262 8.32C283.688 8.32 283.902 8.56 283.902 9.04V37.04C283.902 37.3867 283.808 37.64 283.622 37.8C283.462 37.9333 283.195 38 282.822 38H277.782C277.435 38 277.195 37.9333 277.062 37.8C276.955 37.6667 276.902 37.4533 276.902 37.16V9.08C276.902 8.57333 277.115 8.32 277.542 8.32H283.262ZM314.119 8.32C314.385 8.32 314.572 8.41333 314.679 8.6C314.812 8.78667 314.825 9 314.719 9.24L305.119 37.16C304.959 37.72 304.545 38 303.879 38H298.879C298.185 38 297.759 37.72 297.599 37.16L288.079 9.28C287.999 9.01333 288.012 8.78667 288.119 8.6C288.252 8.41333 288.452 8.32 288.719 8.32H294.479C294.905 8.32 295.185 8.54667 295.319 9L301.879 29.24C302.039 29.6667 302.199 29.6533 302.359 29.2L308.719 9C308.825 8.54667 309.119 8.32 309.599 8.32H314.119ZM318.855 9.08C318.855 8.57333 319.068 8.32 319.495 8.32H339.655C340.055 8.32 340.255 8.54667 340.255 9L340.215 12.6C340.215 13.16 339.935 13.44 339.375 13.44H326.615C326.108 13.44 325.855 13.6533 325.855 14.08V19.88C325.855 20.3333 326.055 20.56 326.455 20.56H334.935C335.388 20.56 335.615 20.7733 335.615 21.2V25.04C335.615 25.2 335.561 25.3333 335.455 25.44C335.375 25.5467 335.215 25.6 334.975 25.6H326.415C326.041 25.6 325.855 25.76 325.855 26.08V32.36C325.855 32.7067 326.001 32.88 326.295 32.88H339.975C340.455 32.88 340.695 33.08 340.695 33.48V37.28C340.695 37.4933 340.628 37.6667 340.495 37.8C340.388 37.9333 340.188 38 339.895 38H319.735C319.148 38 318.855 37.72 318.855 37.16V9.08Z" fill="black"/>
<path d="M76.43 68C76.326 68 76.248 67.9653 76.196 67.896C76.1613 67.8093 76.1613 67.6967 76.196 67.558L82.93 49.072C82.982 48.9507 83.0427 48.864 83.112 48.812C83.1813 48.7427 83.294 48.708 83.45 48.708H85.478C85.79 48.708 85.9893 48.838 86.076 49.098L92.732 67.558C92.7667 67.662 92.758 67.766 92.706 67.87C92.6713 67.9567 92.5933 68 92.472 68H90.626C90.418 68 90.2793 67.9133 90.21 67.74L88.416 62.696C88.3813 62.6267 88.3467 62.5747 88.312 62.54C88.2773 62.5053 88.208 62.488 88.104 62.488H80.538C80.382 62.488 80.278 62.5573 80.226 62.696L78.38 67.766C78.3627 67.8353 78.3193 67.896 78.25 67.948C78.198 67.9827 78.1113 68 77.99 68H76.43ZM87.428 60.512C87.636 60.512 87.7053 60.3993 87.636 60.174L84.516 51.62C84.4467 51.464 84.3773 51.386 84.308 51.386C84.256 51.386 84.204 51.464 84.152 51.62L80.98 60.226C80.8933 60.4167 80.9453 60.512 81.136 60.512H87.428ZM104.806 68C104.685 68 104.589 67.974 104.52 67.922C104.468 67.8527 104.442 67.7573 104.442 67.636V66.544C104.442 66.4053 104.407 66.3273 104.338 66.31C104.286 66.2927 104.208 66.336 104.104 66.44C103.913 66.6133 103.636 66.8473 103.272 67.142C102.925 67.4367 102.483 67.6967 101.946 67.922C101.409 68.1473 100.767 68.26 100.022 68.26C98.93 68.26 97.9506 68 97.084 67.48C96.2173 66.96 95.524 66.1887 95.004 65.166C94.5013 64.126 94.25 62.8433 94.25 61.318C94.25 59.8447 94.5013 58.562 95.004 57.47C95.524 56.3607 96.2433 55.5027 97.162 54.896C98.098 54.272 99.1553 53.96 100.334 53.96C101.183 53.96 101.894 54.0987 102.466 54.376C103.038 54.6533 103.541 54.974 103.974 55.338C104.13 55.4593 104.234 55.5113 104.286 55.494C104.355 55.4593 104.39 55.3467 104.39 55.156V49.046C104.39 48.8207 104.485 48.708 104.676 48.708H106.262C106.453 48.708 106.548 48.8207 106.548 49.046V67.584C106.548 67.74 106.522 67.8527 106.47 67.922C106.418 67.974 106.305 68 106.132 68H104.806ZM104.364 57.262C103.827 56.7247 103.281 56.3087 102.726 56.014C102.171 55.7193 101.547 55.572 100.854 55.572C100.022 55.572 99.268 55.7887 98.592 56.222C97.9333 56.638 97.4133 57.2707 97.032 58.12C96.668 58.9693 96.486 60.0093 96.486 61.24C96.486 62.5053 96.6766 63.5453 97.058 64.36C97.4393 65.1573 97.9506 65.7467 98.592 66.128C99.2333 66.492 99.9353 66.674 100.698 66.674C101.409 66.674 102.033 66.5093 102.57 66.18C103.125 65.8507 103.558 65.4433 103.87 64.958C104.199 64.4727 104.364 63.996 104.364 63.528V57.262ZM120.37 68C120.249 68 120.154 67.974 120.084 67.922C120.032 67.8527 120.006 67.7573 120.006 67.636V66.544C120.006 66.4053 119.972 66.3273 119.902 66.31C119.85 66.2927 119.772 66.336 119.668 66.44C119.478 66.6133 119.2 66.8473 118.836 67.142C118.49 67.4367 118.048 67.6967 117.51 67.922C116.973 68.1473 116.332 68.26 115.586 68.26C114.494 68.26 113.515 68 112.648 67.48C111.782 66.96 111.088 66.1887 110.568 65.166C110.066 64.126 109.814 62.8433 109.814 61.318C109.814 59.8447 110.066 58.562 110.568 57.47C111.088 56.3607 111.808 55.5027 112.726 54.896C113.662 54.272 114.72 53.96 115.898 53.96C116.748 53.96 117.458 54.0987 118.03 54.376C118.602 54.6533 119.105 54.974 119.538 55.338C119.694 55.4593 119.798 55.5113 119.85 55.494C119.92 55.4593 119.954 55.3467 119.954 55.156V49.046C119.954 48.8207 120.05 48.708 120.24 48.708H121.826C122.017 48.708 122.112 48.8207 122.112 49.046V67.584C122.112 67.74 122.086 67.8527 122.034 67.922C121.982 67.974 121.87 68 121.696 68H120.37ZM119.928 57.262C119.391 56.7247 118.845 56.3087 118.29 56.014C117.736 55.7193 117.112 55.572 116.418 55.572C115.586 55.572 114.832 55.7887 114.156 56.222C113.498 56.638 112.978 57.2707 112.596 58.12C112.232 58.9693 112.05 60.0093 112.05 61.24C112.05 62.5053 112.241 63.5453 112.622 64.36C113.004 65.1573 113.515 65.7467 114.156 66.128C114.798 66.492 115.5 66.674 116.262 66.674C116.973 66.674 117.597 66.5093 118.134 66.18C118.689 65.8507 119.122 65.4433 119.434 64.958C119.764 64.4727 119.928 63.996 119.928 63.528V57.262ZM131.905 68.26C130.605 68.26 129.452 67.9653 128.447 67.376C127.459 66.7693 126.688 65.9373 126.133 64.88C125.596 63.8053 125.327 62.5747 125.327 61.188C125.327 59.7493 125.604 58.4927 126.159 57.418C126.731 56.326 127.511 55.4767 128.499 54.87C129.487 54.2633 130.631 53.96 131.931 53.96C133.248 53.96 134.392 54.272 135.363 54.896C136.351 55.5027 137.114 56.352 137.651 57.444C138.206 58.5187 138.483 59.758 138.483 61.162C138.483 62.5487 138.206 63.7793 137.651 64.854C137.096 65.9113 136.325 66.7433 135.337 67.35C134.366 67.9567 133.222 68.26 131.905 68.26ZM131.957 66.622C132.858 66.622 133.63 66.4053 134.271 65.972C134.912 65.5213 135.398 64.8887 135.727 64.074C136.074 63.242 136.247 62.254 136.247 61.11C136.247 59.966 136.074 58.9867 135.727 58.172C135.38 57.34 134.886 56.6987 134.245 56.248C133.604 55.7973 132.832 55.572 131.931 55.572C131.047 55.572 130.276 55.7973 129.617 56.248C128.958 56.6987 128.447 57.34 128.083 58.172C127.736 58.9867 127.563 59.966 127.563 61.11C127.563 62.2367 127.736 63.216 128.083 64.048C128.447 64.88 128.958 65.5213 129.617 65.972C130.276 66.4053 131.056 66.622 131.957 66.622ZM142.061 68C141.819 68 141.697 67.8873 141.697 67.662V54.558C141.697 54.3327 141.793 54.22 141.983 54.22H143.543C143.734 54.22 143.829 54.3153 143.829 54.506V56.014C143.829 56.1007 143.847 56.1527 143.881 56.17C143.916 56.1873 143.977 56.1613 144.063 56.092C144.635 55.6413 145.164 55.26 145.649 54.948C146.152 54.6187 146.663 54.376 147.183 54.22C147.703 54.0467 148.258 53.96 148.847 53.96C150.199 53.96 151.231 54.324 151.941 55.052C152.669 55.78 153.033 56.7247 153.033 57.886V67.584C153.033 67.8613 152.903 68 152.643 68H151.187C151.066 68 150.979 67.974 150.927 67.922C150.875 67.8527 150.849 67.766 150.849 67.662V58.38C150.849 57.5307 150.633 56.872 150.199 56.404C149.766 55.9187 149.081 55.676 148.145 55.676C147.643 55.676 147.166 55.7627 146.715 55.936C146.282 56.092 145.84 56.326 145.389 56.638C144.939 56.9327 144.436 57.314 143.881 57.782V67.61C143.881 67.87 143.751 68 143.491 68H142.061ZM165.149 57.262C164.802 56.742 164.317 56.3173 163.693 55.988C163.069 55.6587 162.324 55.494 161.457 55.494C160.521 55.494 159.741 55.6933 159.117 56.092C158.51 56.4907 158.207 57.028 158.207 57.704C158.207 58.068 158.346 58.4147 158.623 58.744C158.9 59.056 159.464 59.3507 160.313 59.628L163.615 60.616C164.811 60.9453 165.669 61.422 166.189 62.046C166.726 62.67 166.995 63.3893 166.995 64.204C166.995 65.0187 166.752 65.7293 166.267 66.336C165.782 66.9427 165.114 67.4193 164.265 67.766C163.416 68.0953 162.454 68.26 161.379 68.26C160.01 68.26 158.814 67.9913 157.791 67.454C156.768 66.8993 156.04 66.2147 155.607 65.4C155.555 65.3133 155.529 65.2353 155.529 65.166C155.529 65.0967 155.572 65.036 155.659 64.984L156.673 64.412C156.76 64.36 156.838 64.3427 156.907 64.36C156.976 64.36 157.028 64.386 157.063 64.438C157.358 64.8887 157.696 65.2787 158.077 65.608C158.476 65.9373 158.944 66.1973 159.481 66.388C160.036 66.5787 160.677 66.674 161.405 66.674C162.064 66.6567 162.662 66.5613 163.199 66.388C163.736 66.2147 164.161 65.9633 164.473 65.634C164.785 65.2873 164.941 64.8887 164.941 64.438C164.941 63.97 164.75 63.5713 164.369 63.242C163.988 62.8953 163.329 62.592 162.393 62.332L159.715 61.578C158.415 61.2313 157.496 60.7633 156.959 60.174C156.439 59.5847 156.17 58.8913 156.153 58.094C156.153 57.262 156.378 56.5427 156.829 55.936C157.28 55.312 157.904 54.8267 158.701 54.48C159.516 54.1333 160.443 53.96 161.483 53.96C162.644 53.96 163.676 54.1853 164.577 54.636C165.496 55.0693 166.189 55.65 166.657 56.378C166.709 56.4473 166.735 56.5167 166.735 56.586C166.735 56.638 166.7 56.69 166.631 56.742L165.539 57.34C165.47 57.3747 165.4 57.392 165.331 57.392C165.279 57.3747 165.218 57.3313 165.149 57.262ZM182.714 54.22C182.801 54.22 182.861 54.246 182.896 54.298C182.948 54.35 182.974 54.4107 182.974 54.48V55.598C182.974 55.7713 182.887 55.858 182.714 55.858H179.75C179.611 55.858 179.542 55.9273 179.542 56.066V67.636C179.542 67.8787 179.438 68 179.23 68H177.644C177.453 68 177.358 67.8873 177.358 67.662V56.04C177.358 55.9187 177.297 55.858 177.176 55.858H174.628C174.455 55.858 174.368 55.7713 174.368 55.598V54.48C174.368 54.4107 174.385 54.35 174.42 54.298C174.472 54.246 174.55 54.22 174.654 54.22H177.124C177.28 54.22 177.358 54.1333 177.358 53.96V52.062C177.358 50.97 177.627 50.138 178.164 49.566C178.701 48.994 179.516 48.708 180.608 48.708H182.766C182.991 48.708 183.104 48.812 183.104 49.02V50.034C183.104 50.1207 183.078 50.19 183.026 50.242C182.991 50.2767 182.922 50.294 182.818 50.294H180.998C180.461 50.294 180.071 50.4673 179.828 50.814C179.603 51.1433 179.49 51.594 179.49 52.166V53.986C179.49 54.142 179.568 54.22 179.724 54.22H182.714ZM190.862 68.26C189.562 68.26 188.409 67.9653 187.404 67.376C186.416 66.7693 185.645 65.9373 185.09 64.88C184.553 63.8053 184.284 62.5747 184.284 61.188C184.284 59.7493 184.561 58.4927 185.116 57.418C185.688 56.326 186.468 55.4767 187.456 54.87C188.444 54.2633 189.588 53.96 190.888 53.96C192.205 53.96 193.349 54.272 194.32 54.896C195.308 55.5027 196.071 56.352 196.608 57.444C197.163 58.5187 197.44 59.758 197.44 61.162C197.44 62.5487 197.163 63.7793 196.608 64.854C196.053 65.9113 195.282 66.7433 194.294 67.35C193.323 67.9567 192.179 68.26 190.862 68.26ZM190.914 66.622C191.815 66.622 192.587 66.4053 193.228 65.972C193.869 65.5213 194.355 64.8887 194.684 64.074C195.031 63.242 195.204 62.254 195.204 61.11C195.204 59.966 195.031 58.9867 194.684 58.172C194.337 57.34 193.843 56.6987 193.202 56.248C192.561 55.7973 191.789 55.572 190.888 55.572C190.004 55.572 189.233 55.7973 188.574 56.248C187.915 56.6987 187.404 57.34 187.04 58.172C186.693 58.9867 186.52 59.966 186.52 61.11C186.52 62.2367 186.693 63.216 187.04 64.048C187.404 64.88 187.915 65.5213 188.574 65.972C189.233 66.4053 190.013 66.622 190.914 66.622ZM201.018 68C200.897 68 200.802 67.974 200.732 67.922C200.68 67.8527 200.654 67.766 200.654 67.662V54.558C200.654 54.3327 200.75 54.22 200.94 54.22H202.448C202.639 54.22 202.734 54.3153 202.734 54.506V56.196C202.734 56.3 202.76 56.3607 202.812 56.378C202.864 56.3953 202.934 56.3607 203.02 56.274C203.471 55.7367 203.913 55.3033 204.346 54.974C204.797 54.6273 205.248 54.376 205.698 54.22C206.149 54.0467 206.6 53.96 207.05 53.96C207.657 53.96 207.96 54.0727 207.96 54.298V55.858C207.96 56.0313 207.882 56.1007 207.726 56.066C207.57 56.0487 207.388 56.0313 207.18 56.014C206.99 55.9967 206.782 55.988 206.556 55.988C206.175 55.988 205.768 56.0747 205.334 56.248C204.901 56.404 204.494 56.6293 204.112 56.924C203.748 57.2187 203.445 57.548 203.202 57.912C202.96 58.276 202.838 58.64 202.838 59.004V67.61C202.838 67.87 202.708 68 202.448 68H201.018ZM216.688 49.072C216.688 48.8293 216.792 48.708 217 48.708H228.674C228.847 48.708 228.934 48.8033 228.934 48.994V50.32C228.934 50.528 228.821 50.632 228.596 50.632H219.522C219.297 50.632 219.184 50.736 219.184 50.944V57.028C219.184 57.2187 219.279 57.314 219.47 57.314H226.204C226.395 57.314 226.49 57.4093 226.49 57.6V58.978C226.49 59.0473 226.473 59.108 226.438 59.16C226.403 59.1947 226.325 59.212 226.204 59.212H219.47C219.279 59.212 219.184 59.3073 219.184 59.498V65.816C219.184 65.9893 219.271 66.076 219.444 66.076H228.986C229.177 66.076 229.272 66.1627 229.272 66.336V67.714C229.272 67.8007 229.246 67.87 229.194 67.922C229.159 67.974 229.09 68 228.986 68H217.052C216.809 68 216.688 67.8787 216.688 67.636V49.072ZM234.704 67.558C234.704 67.7313 234.67 67.8527 234.6 67.922C234.531 67.974 234.41 68 234.236 68H232.884C232.624 68 232.494 67.8787 232.494 67.636L232.52 49.072C232.52 48.8293 232.624 48.708 232.832 48.708H234.392C234.6 48.708 234.704 48.8207 234.704 49.046V67.558ZM240.171 61.968C240.171 62.8173 240.37 63.5973 240.769 64.308C241.185 65.0013 241.731 65.556 242.407 65.972C243.1 66.388 243.872 66.596 244.721 66.596C245.588 66.596 246.359 66.4227 247.035 66.076C247.711 65.712 248.292 65.166 248.777 64.438C248.846 64.3687 248.898 64.334 248.933 64.334C248.985 64.3167 249.054 64.3253 249.141 64.36L250.233 64.906C250.389 64.9927 250.406 65.114 250.285 65.27C249.817 65.9633 249.297 66.5353 248.725 66.986C248.17 67.4193 247.546 67.74 246.853 67.948C246.16 68.156 245.38 68.26 244.513 68.26C243.23 68.26 242.095 67.9653 241.107 67.376C240.119 66.7867 239.339 65.9633 238.767 64.906C238.195 63.8487 237.909 62.6267 237.909 61.24C237.909 59.732 238.195 58.4407 238.767 57.366C239.356 56.274 240.145 55.4333 241.133 54.844C242.138 54.2547 243.256 53.96 244.487 53.96C245.752 53.96 246.853 54.2373 247.789 54.792C248.725 55.3467 249.453 56.1527 249.973 57.21C250.493 58.2673 250.753 59.5413 250.753 61.032C250.753 61.1533 250.736 61.2747 250.701 61.396C250.684 61.5173 250.571 61.578 250.363 61.578H240.405C240.336 61.578 240.275 61.6213 240.223 61.708C240.188 61.7773 240.171 61.864 240.171 61.968ZM248.127 60.148C248.318 60.148 248.439 60.1307 248.491 60.096C248.543 60.044 248.569 59.94 248.569 59.784C248.569 59.0387 248.404 58.3453 248.075 57.704C247.763 57.0453 247.304 56.5167 246.697 56.118C246.108 55.7193 245.388 55.52 244.539 55.52C243.603 55.52 242.814 55.7453 242.173 56.196C241.532 56.6293 241.046 57.2013 240.717 57.912C240.388 58.6227 240.223 59.368 240.223 60.148H248.127ZM254.186 68C253.944 68 253.822 67.8873 253.822 67.662V54.558C253.822 54.3327 253.918 54.22 254.108 54.22H255.668C255.842 54.22 255.928 54.3153 255.928 54.506V56.014C255.928 56.1007 255.946 56.1527 255.98 56.17C256.032 56.1873 256.102 56.1613 256.188 56.092C256.743 55.6413 257.254 55.26 257.722 54.948C258.208 54.6187 258.693 54.376 259.178 54.22C259.681 54.0467 260.218 53.96 260.79 53.96C261.813 53.96 262.628 54.194 263.234 54.662C263.858 55.13 264.274 55.6587 264.482 56.248C264.517 56.3173 264.569 56.3433 264.638 56.326C264.708 56.3087 264.777 56.2653 264.846 56.196C265.401 55.728 265.921 55.3293 266.406 55C266.909 54.6707 267.412 54.4193 267.914 54.246C268.434 54.0553 268.98 53.96 269.552 53.96C270.818 53.96 271.797 54.324 272.49 55.052C273.184 55.7627 273.53 56.7247 273.53 57.938V67.584C273.53 67.8613 273.4 68 273.14 68H271.684C271.563 68 271.476 67.974 271.424 67.922C271.372 67.8527 271.346 67.766 271.346 67.662V58.38C271.346 57.5307 271.138 56.872 270.722 56.404C270.324 55.9187 269.691 55.676 268.824 55.676C268.322 55.676 267.836 55.7713 267.368 55.962C266.918 56.1527 266.502 56.3867 266.12 56.664C265.756 56.9413 265.427 57.2013 265.132 57.444C264.994 57.5653 264.898 57.6867 264.846 57.808C264.794 57.912 264.768 58.0507 264.768 58.224V67.584C264.768 67.8613 264.638 68 264.378 68H262.922C262.818 68 262.732 67.974 262.662 67.922C262.61 67.8527 262.584 67.766 262.584 67.662V58.38C262.584 57.5307 262.385 56.872 261.986 56.404C261.588 55.9187 260.955 55.676 260.088 55.676C259.36 55.676 258.693 55.8493 258.086 56.196C257.48 56.5427 256.786 57.0713 256.006 57.782V67.61C256.006 67.87 255.876 68 255.616 68H254.186ZM278.841 61.968C278.841 62.8173 279.04 63.5973 279.439 64.308C279.855 65.0013 280.401 65.556 281.077 65.972C281.77 66.388 282.541 66.596 283.391 66.596C284.257 66.596 285.029 66.4227 285.705 66.076C286.381 65.712 286.961 65.166 287.447 64.438C287.516 64.3687 287.568 64.334 287.603 64.334C287.655 64.3167 287.724 64.3253 287.811 64.36L288.903 64.906C289.059 64.9927 289.076 65.114 288.955 65.27C288.487 65.9633 287.967 66.5353 287.395 66.986C286.84 67.4193 286.216 67.74 285.523 67.948C284.829 68.156 284.049 68.26 283.183 68.26C281.9 68.26 280.765 67.9653 279.777 67.376C278.789 66.7867 278.009 65.9633 277.437 64.906C276.865 63.8487 276.579 62.6267 276.579 61.24C276.579 59.732 276.865 58.4407 277.437 57.366C278.026 56.274 278.815 55.4333 279.803 54.844C280.808 54.2547 281.926 53.96 283.157 53.96C284.422 53.96 285.523 54.2373 286.459 54.792C287.395 55.3467 288.123 56.1527 288.643 57.21C289.163 58.2673 289.423 59.5413 289.423 61.032C289.423 61.1533 289.405 61.2747 289.371 61.396C289.353 61.5173 289.241 61.578 289.033 61.578H279.075C279.005 61.578 278.945 61.6213 278.893 61.708C278.858 61.7773 278.841 61.864 278.841 61.968ZM286.797 60.148C286.987 60.148 287.109 60.1307 287.161 60.096C287.213 60.044 287.239 59.94 287.239 59.784C287.239 59.0387 287.074 58.3453 286.745 57.704C286.433 57.0453 285.973 56.5167 285.367 56.118C284.777 55.7193 284.058 55.52 283.209 55.52C282.273 55.52 281.484 55.7453 280.843 56.196C280.201 56.6293 279.716 57.2013 279.387 57.912C279.057 58.6227 278.893 59.368 278.893 60.148H286.797ZM292.856 68C292.614 68 292.492 67.8873 292.492 67.662V54.558C292.492 54.3327 292.588 54.22 292.778 54.22H294.338C294.529 54.22 294.624 54.3153 294.624 54.506V56.014C294.624 56.1007 294.642 56.1527 294.676 56.17C294.711 56.1873 294.772 56.1613 294.858 56.092C295.43 55.6413 295.959 55.26 296.444 54.948C296.947 54.6187 297.458 54.376 297.978 54.22C298.498 54.0467 299.053 53.96 299.642 53.96C300.994 53.96 302.026 54.324 302.736 55.052C303.464 55.78 303.828 56.7247 303.828 57.886V67.584C303.828 67.8613 303.698 68 303.438 68H301.982C301.861 68 301.774 67.974 301.722 67.922C301.67 67.8527 301.644 67.766 301.644 67.662V58.38C301.644 57.5307 301.428 56.872 300.994 56.404C300.561 55.9187 299.876 55.676 298.94 55.676C298.438 55.676 297.961 55.7627 297.51 55.936C297.077 56.092 296.635 56.326 296.184 56.638C295.734 56.9327 295.231 57.314 294.676 57.782V67.61C294.676 67.87 294.546 68 294.286 68H292.856ZM310.986 55.858C310.847 55.858 310.778 55.9273 310.778 56.066V64.308C310.778 65.1227 310.916 65.6687 311.194 65.946C311.471 66.2233 311.887 66.362 312.442 66.362H314.236C314.322 66.362 314.392 66.388 314.444 66.44C314.496 66.4747 314.522 66.544 314.522 66.648L314.496 67.532C314.496 67.7053 314.392 67.818 314.184 67.87C314.01 67.9047 313.759 67.9307 313.43 67.948C313.118 67.9653 312.806 67.9827 312.494 68C312.199 68 311.948 68 311.74 68C310.648 68 309.85 67.7487 309.348 67.246C308.845 66.726 308.594 65.9113 308.594 64.802V56.118C308.594 55.9447 308.507 55.858 308.334 55.858H306.254C306.063 55.858 305.968 55.7627 305.968 55.572V54.48C305.968 54.3067 306.054 54.22 306.228 54.22H308.438C308.559 54.22 308.62 54.1507 308.62 54.012L308.906 49.878C308.923 49.6527 309.018 49.54 309.192 49.54H310.492C310.7 49.54 310.804 49.6613 310.804 49.904V54.012C310.804 54.1507 310.873 54.22 311.012 54.22H314.288C314.478 54.22 314.574 54.298 314.574 54.454V55.572C314.574 55.7627 314.478 55.858 314.288 55.858H310.986ZM322.842 68.26C321.542 68.26 320.39 67.9653 319.384 67.376C318.396 66.7693 317.625 65.9373 317.07 64.88C316.533 63.8053 316.264 62.5747 316.264 61.188C316.264 59.7493 316.542 58.4927 317.096 57.418C317.668 56.326 318.448 55.4767 319.436 54.87C320.424 54.2633 321.568 53.96 322.868 53.96C324.186 53.96 325.33 54.272 326.3 54.896C327.288 55.5027 328.051 56.352 328.588 57.444C329.143 58.5187 329.42 59.758 329.42 61.162C329.42 62.5487 329.143 63.7793 328.588 64.854C328.034 65.9113 327.262 66.7433 326.274 67.35C325.304 67.9567 324.16 68.26 322.842 68.26ZM322.894 66.622C323.796 66.622 324.567 66.4053 325.208 65.972C325.85 65.5213 326.335 64.8887 326.664 64.074C327.011 63.242 327.184 62.254 327.184 61.11C327.184 59.966 327.011 58.9867 326.664 58.172C326.318 57.34 325.824 56.6987 325.182 56.248C324.541 55.7973 323.77 55.572 322.868 55.572C321.984 55.572 321.213 55.7973 320.554 56.248C319.896 56.6987 319.384 57.34 319.02 58.172C318.674 58.9867 318.5 59.966 318.5 61.11C318.5 62.2367 318.674 63.216 319.02 64.048C319.384 64.88 319.896 65.5213 320.554 65.972C321.213 66.4053 321.993 66.622 322.894 66.622ZM332.999 68C332.877 68 332.782 67.974 332.713 67.922C332.661 67.8527 332.635 67.766 332.635 67.662V54.558C332.635 54.3327 332.73 54.22 332.921 54.22H334.429C334.619 54.22 334.715 54.3153 334.715 54.506V56.196C334.715 56.3 334.741 56.3607 334.793 56.378C334.845 56.3953 334.914 56.3607 335.001 56.274C335.451 55.7367 335.893 55.3033 336.327 54.974C336.777 54.6273 337.228 54.376 337.679 54.22C338.129 54.0467 338.58 53.96 339.031 53.96C339.637 53.96 339.941 54.0727 339.941 54.298V55.858C339.941 56.0313 339.863 56.1007 339.707 56.066C339.551 56.0487 339.369 56.0313 339.161 56.014C338.97 55.9967 338.762 55.988 338.537 55.988C338.155 55.988 337.748 56.0747 337.315 56.248C336.881 56.404 336.474 56.6293 336.093 56.924C335.729 57.2187 335.425 57.548 335.183 57.912C334.94 58.276 334.819 58.64 334.819 59.004V67.61C334.819 67.87 334.689 68 334.429 68H332.999Z" fill="#A274FF"/>
<defs>
<linearGradient id="paint0_linear_2058_239" x1="30" y1="68" x2="30" y2="8" gradientUnits="userSpaceOnUse">
<stop stop-color="#39325B"/>
<stop offset="1" stop-color="#6319BF"/>
</linearGradient>
<clipPath id="clip0_2058_239">
<rect width="60" height="60" fill="white" transform="translate(0 8)"/>
</clipPath>
</defs>
</svg>
