<svg width="24" height="24" viewBox="0 0 24 24" fill="none" xmlns="http://www.w3.org/2000/svg">
<rect width="24" height="24" rx="12" fill="#2D2C52"/>
<path d="M13.5421 16.6163H15.7517C15.414 17.2019 15.079 17.7889 14.7462 18.3772C14.7451 18.3787 14.7439 18.3799 14.7432 18.3817H9.68256C9.67768 18.3737 9.67236 18.3662 9.66736 18.3574C8.94418 17.0907 8.21692 15.8263 7.48993 14.5619C7.13478 13.9442 6.77733 13.3278 6.42191 12.7104C6.40631 12.6832 6.39803 12.6513 6.37794 12.6001C6.43589 12.5944 6.47986 12.5864 6.52383 12.5864C7.14157 12.5856 7.75972 12.5887 8.3776 12.5853C9.06021 12.5815 9.68217 12.1416 9.90122 11.5146C10.2022 10.6542 9.76592 9.74959 8.89193 9.44628C8.72067 9.38683 8.53108 9.35453 8.3495 9.35345C7.13736 9.34503 5.92495 9.34585 4.71281 9.35155C4.54683 9.35236 4.45279 9.30608 4.36906 9.1526C4.08936 8.63976 3.78769 8.13872 3.4951 7.63307C3.4746 7.59779 3.45832 7.55993 3.42847 7.49968C3.4951 7.49289 3.53907 7.48448 3.58304 7.48448C5.19457 7.48339 6.80623 7.47579 8.41777 7.48488C9.8857 7.49289 11.2119 8.47338 11.6754 9.87117C12.253 11.6142 11.3924 13.4861 9.69205 14.1859C9.66563 14.1965 9.64049 14.2108 9.61324 14.2188C9.50262 14.2514 9.48595 14.3075 9.54494 14.4087C9.91873 15.0484 10.2867 15.6921 10.6601 16.3323C10.867 16.6874 10.7476 16.6229 11.1729 16.6259C11.9287 16.6305 12.6848 16.6255 13.4406 16.6293C13.4791 16.6294 13.5125 16.6256 13.5421 16.6163Z" fill="white"/>
<path d="M18.3546 12.0728C18.3231 12.1464 18.305 12.2033 18.2758 12.2536C17.9517 12.8142 17.6276 13.3747 17.3031 13.9353H15.1382C15.1405 13.9304 15.1435 13.9251 15.1462 13.9197H12.2908C12.3253 13.8541 12.3405 13.8166 12.3631 13.7844C12.7084 13.294 12.9661 12.7622 13.1056 12.1773C13.1337 12.0606 13.2094 12.0625 13.2986 12.0625C14.2495 12.0636 15.2001 12.0633 16.151 12.0633C16.826 12.0633 17.501 12.0637 18.176 12.064C18.2272 12.0646 18.278 12.069 18.3546 12.0728Z" fill="white"/>
<path d="M11.8599 7.49805C14.8991 7.49805 17.9333 7.49805 21.0019 7.49805C20.9134 7.65791 20.841 7.79335 20.7643 7.92648C20.5108 8.36685 20.2538 8.80519 20.0033 9.24719C19.9544 9.33336 19.8885 9.34652 19.8026 9.34639C19.1705 9.34503 18.5386 9.34598 17.9066 9.34585C16.329 9.34557 14.7512 9.34354 13.1737 9.34775C13.0341 9.34815 12.9614 9.30839 12.9109 9.17404C12.6925 8.59348 12.3618 8.08145 11.9354 7.63118C11.9126 7.60702 11.8904 7.58205 11.871 7.55532C11.8638 7.54514 11.8654 7.52858 11.8599 7.49805Z" fill="white"/>
</svg>
